<?xml version="1.0" encoding="utf-8"?>
<!-- Generator: Adobe Illustrator 27.5.0, SVG Export Plug-In . SVG Version: 6.00 Build 0)  -->
<svg version="1.1" id="Layer_1" xmlns="http://www.w3.org/2000/svg" xmlns:xlink="http://www.w3.org/1999/xlink" x="0px" y="0px"
	 viewBox="0 0 292 230" style="enable-background:new 0 0 292 230;" xml:space="preserve">
<style type="text/css">
	.st0{fill:#FFFAEF;}
</style>
<g>
	<path class="st0" d="M233.4,177.9c0,19.5-11.4,34.4-28.9,43.4c-18.4,9.5-35.5-9.3-58.2-9.3s-33.5,17.5-58.2,9.3
		c-18.6-6.2-27.9-22.6-27.9-42.1s12.8-47.6,27.2-62c13.9-13.9,38.3-34.4,61.1-34.4s56,26.4,67.7,42.4
		C227.9,141,233.4,158.4,233.4,177.9z"/>
	<path class="st0" d="M7.2,111.6c-4.6-6.3-4.4-13.7-1-20.7c3.7-7.4,13.6-5.4,20.9-10.8s6.6-13.5,16.5-16.7
		c7.5-2.4,14.3,0.7,18.9,6.9c4.6,6.3,7.1,18.3,5.9,26.3c-1.2,7.7-4.2,20.1-11.5,25.5s-24.2,4.7-31.8,2.4
		C17.7,122.2,11.8,117.9,7.2,111.6z"/>
	<path class="st0" d="M64.2,39.9c-2.3-7.4,0.3-14.4,5.9-19.9c5.9-5.8,14.6-0.6,23.3-3.3s10.7-10.6,21.1-10.3
		c7.8,0.2,13.3,5.4,15.5,12.8c2.3,7.4,0.7,19.6-3.2,26.8c-3.7,6.9-10.6,17.6-19.3,20.2S83.2,62.7,76.8,58
		C70.6,53.3,66.4,47.3,64.2,39.9z"/>
	<path class="st0" d="M165.5,14.8c4-6.7,10.9-9.5,18.7-9c8.3,0.5,10.3,10.4,18.1,15s15,0.8,21.8,8.6c5.1,5.9,5,13.4,1,20.1
		S211,63.3,203.2,65.3c-7.6,1.9-20.1,4-27.9-0.6s-13.8-20.4-14.6-28.3C159.8,28.6,161.5,21.5,165.5,14.8z"/>
	<path class="st0" d="M225.3,72.6c4-6.7,10.9-9.5,18.7-9c8.3,0.5,10.3,10.4,18.1,15c7.8,4.6,15,0.8,21.8,8.6c5.1,5.9,5,13.4,1,20.1
		S270.8,121,263,123c-7.6,1.9-20.1,4-27.9-0.6s-13.8-20.4-14.6-28.3C219.6,86.4,221.3,79.3,225.3,72.6z"/>
</g>
</svg>
