<svg xmlns="http://www.w3.org/2000/svg" viewBox="0 0 459.57 544.1" xmlns:v="https://vecta.io/nano"><style><![CDATA[.E{fill:#4f301e}.F{font-family:JosefinSans-Regular,Josefin Sans}.G{font-size:60px}.H{stroke-miterlimit:10}]]></style><path d="M304.95 355.43c0 15.22-8.89 26.79-22.49 33.82-14.37 7.43-27.65-7.21-45.36-7.21s-26.11 13.67-45.36 7.21c-14.51-4.87-21.76-17.62-21.76-32.84s10.01-37.1 21.23-48.32c10.82-10.82 29.88-26.85 47.59-26.85s43.61 20.57 52.79 33.05c9.07 12.33 13.35 25.92 13.35 41.14zm-176.3-51.69c-3.59-4.89-3.46-10.7-.76-16.16 2.86-5.77 10.58-4.21 16.27-8.39s5.16-10.55 12.86-13.02c5.81-1.86 11.14.52 14.73 5.41s5.54 14.27 4.58 20.52-3.26 15.67-8.95 19.85-18.85 3.68-24.75 1.84-10.4-5.17-13.99-10.06zm44.41-55.92c-1.77-5.8.27-11.24 4.63-15.5 4.61-4.51 11.37-.47 18.12-2.54s8.36-8.25 16.44-8.03c6.1.16 10.34 4.18 12.12 9.98s.51 15.3-2.46 20.89-8.25 13.71-15 15.78c-6.75 2.06-19.01-2.76-23.96-6.44s-8.11-8.32-9.88-14.12zM252 228.33c3.09-5.22 8.49-7.38 14.57-7.03 6.43.37 8.01 8.09 14.09 11.68 6.07 3.6 11.73.62 17.02 6.74 3.99 4.61 3.88 10.46.79 15.68s-10.96 10.69-17.09 12.26c-5.91 1.51-15.69 3.14-21.77-.46-6.07-3.6-10.77-15.91-11.39-22.05s.68-11.6 3.77-16.82zm46.6 45.04c3.09-5.22 8.49-7.38 14.57-7.03 6.43.37 8.01 8.09 14.09 11.68 6.07 3.6 11.73.62 17.02 6.74 3.99 4.61 3.88 10.46.79 15.68s-10.96 10.69-17.09 12.26-15.69 3.14-21.77-.46-10.77-15.91-11.39-22.05c-.61-6.07.68-11.6 3.77-16.82z" fill="none" stroke-width="5" stroke="#4f301e" class="H"/><text transform="matrix(.676105 -.736806 .736806 .676105 76.55 200.56)" class="E F G"><tspan x="0" y="0">P</tspan></text><text transform="matrix(.788118 -.615524 .615524 .788118 99.57 175.45)" class="E F G"><tspan x="0" y="0">o</tspan></text><text transform="matrix(.861363 -.507989 .507989 .861363 124.46 156.37)" class="E F G"><tspan x="0" y="0">t</tspan></text><text transform="matrix(.918446 -.395546 .395546 .918446 141.78 145.71)" class="E F G"><tspan x="0" y="0">e</tspan></text><text transform="matrix(.987906 -.155055 .155055 .987906 186.2 128.52)" class="E F G"><tspan x="0" y="0">P</tspan></text><text transform="matrix(.999879 .015533 -.015533 .999879 219.78 123.11)" class="E F G"><tspan x="0" y="0">a</tspan></text><text transform="matrix(.987906 .155055 -.155055 .987906 253.55 123.98)" class="E F G"><tspan x="0" y="0">r</tspan></text><text transform="matrix(.957521 .288363 -.288363 .957521 274.01 126.62)" class="E F G"><tspan x="0" y="0">a</tspan></text><text transform="matrix(.895323 .445417 -.445417 .895323 306.19 136.15)" class="E F G"><tspan x="0" y="0">d</tspan></text><text transform="matrix(.833982 .551791 -.551791 .833982 336.64 151.91)" class="E F G"><tspan x="0" y="0">i</tspan></text><text transform="matrix(.776816 .629727 -.629727 .776816 348.74 159.59)" class="E F G"><tspan x="0" y="0">s</tspan></text><text transform="matrix(.685056 .728491 -.728491 .685056 366.92 173.93)" class="E F G"><tspan x="0" y="0">e</tspan></text><text transform="matrix(.587079 .80953 -.80953 .587079 387.23 195.85)" class="E F G"><tspan x="0" y="0">t</tspan></text><text transform="matrix(.820651 .57143 -.57143 .820651 76.04 468.8)" class="E F G"><tspan x="0" y="0">H</tspan></text><text transform="matrix(.919616 .392819 -.392819 .919616 119.68 497.64)" class="E F G"><tspan x="0" y="0">u</tspan></text><text transform="matrix(.972857 .231408 -.231408 .972857 154.22 511.99)" class="E F G"><tspan x="0" y="0">n</tspan></text><text transform="matrix(.998156 .0607 -.0607 .998156 191.38 520.42)" class="E F G"><tspan x="0" y="0">d</tspan></text><text transform="matrix(.993903 -.110255 .110255 .993903 231.25 522.24)" class="E F G"><tspan x="0" y="0">e</tspan></text><text transform="matrix(.960391 -.278656 .278656 .960391 266.85 518.09)" class="E F G"><tspan x="0" y="0">p</tspan></text><text transform="matrix(.915733 -.401788 .401788 .915733 304.1 506.34)" class="E F G"><tspan x="0" y="0">l</tspan></text><text transform="matrix(.861452 -.507839 .507839 .861452 321.16 499.16)" class="E F G"><tspan x="0" y="0">e</tspan></text><text transform="matrix(.79505 -.606544 .606544 .79505 350.42 481.16)" class="E F G"><tspan x="0" y="0">j</tspan></text><text transform="matrix(.717519 -.696539 .696539 .717519 365.52 469.98)" class="E F G"><tspan x="0" y="0">e</tspan></text><path d="M85.86 438.23C64.41 414.59 48.73 385.87 40.58 355c-8.78-33.27-8.82-68.77-.11-102.05 4.89-18.67 12.51-36.6 22.55-53.08m351.08 16.07c35.72 68.95 21.72 156.95-26.72 216.45" fill="none" stroke="#4f301e" stroke-width="4" class="H"/></svg>