<?xml version="1.0" encoding="UTF-8"?>
<svg id="Layer_1" data-name="Layer 1" xmlns="http://www.w3.org/2000/svg" viewBox="0 0 459.57 544.1">
  <defs>
    <style>
      .cls-1, .cls-2, .cls-3 {
        fill: none;
      }

      .cls-4 {
        fill: #4f301e;
        font-family: JosefinSans-Regular, 'Josefin Sans';
        font-size: 60px;
      }

      .cls-2 {
        stroke-width: 5px;
      }

      .cls-2, .cls-3 {
        stroke: #4f301e;
        stroke-miterlimit: 10;
      }

      .cls-3 {
        stroke-width: 4px;
      }
    </style>
  </defs>
  <g>
    <path class="cls-2" d="m304.95,355.43c0,15.22-8.89,26.79-22.49,33.82-14.37,7.43-27.65-7.21-45.36-7.21s-26.11,13.67-45.36,7.21c-14.51-4.87-21.76-17.62-21.76-32.84s10.01-37.1,21.23-48.32c10.82-10.82,29.88-26.85,47.59-26.85s43.61,20.57,52.79,33.05c9.07,12.33,13.35,25.92,13.35,41.14Z"/>
    <path class="cls-2" d="m128.65,303.74c-3.59-4.89-3.46-10.7-.76-16.16,2.86-5.77,10.58-4.21,16.27-8.39,5.69-4.18,5.16-10.55,12.86-13.02,5.81-1.86,11.14.52,14.73,5.41s5.54,14.27,4.58,20.52-3.26,15.67-8.95,19.85c-5.69,4.18-18.85,3.68-24.75,1.84s-10.4-5.17-13.99-10.06Z"/>
    <path class="cls-2" d="m173.06,247.82c-1.77-5.8.27-11.24,4.63-15.5,4.61-4.51,11.37-.47,18.12-2.54s8.36-8.25,16.44-8.03c6.1.16,10.34,4.18,12.12,9.98s.51,15.3-2.46,20.89-8.25,13.71-15,15.78c-6.75,2.06-19.01-2.76-23.96-6.44s-8.11-8.32-9.88-14.12Z"/>
    <path class="cls-2" d="m252,228.33c3.09-5.22,8.49-7.38,14.57-7.03,6.43.37,8.01,8.09,14.09,11.68,6.07,3.6,11.73.62,17.02,6.74,3.99,4.61,3.88,10.46.79,15.68s-10.96,10.69-17.09,12.26c-5.91,1.51-15.69,3.14-21.77-.46-6.07-3.6-10.77-15.91-11.39-22.05s.68-11.6,3.77-16.82Z"/>
    <path class="cls-2" d="m298.6,273.37c3.09-5.22,8.49-7.38,14.57-7.03,6.43.37,8.01,8.09,14.09,11.68,6.07,3.6,11.73.62,17.02,6.74,3.99,4.61,3.88,10.46.79,15.68-3.09,5.22-10.96,10.69-17.09,12.26s-15.69,3.14-21.77-.46-10.77-15.91-11.39-22.05c-.61-6.07.68-11.6,3.77-16.82Z"/>
  </g>
  <circle class="cls-1" cx="234.07" cy="320.58" r="198.26"/>
  <text class="cls-4" transform="translate(76.55 200.56) rotate(-47.46)"><tspan x="0" y="0">P</tspan></text>
  <text class="cls-4" transform="translate(99.57 175.45) rotate(-37.99)"><tspan x="0" y="0">o</tspan></text>
  <text class="cls-4" transform="translate(124.46 156.37) rotate(-30.53)"><tspan x="0" y="0">t</tspan></text>
  <text class="cls-4" transform="translate(141.78 145.71) rotate(-23.3)"><tspan x="0" y="0">e</tspan></text>
  <text class="cls-4" transform="translate(169.42 134.13) rotate(-16.44)"><tspan x="0" y="0"> </tspan></text>
  <text class="cls-4" transform="translate(186.2 128.52) rotate(-8.92)"><tspan x="0" y="0">P</tspan></text>
  <text class="cls-4" transform="translate(219.78 123.11) rotate(.89)"><tspan x="0" y="0">a</tspan></text>
  <text class="cls-4" transform="translate(253.55 123.98) rotate(8.92)"><tspan x="0" y="0">r</tspan></text>
  <text class="cls-4" transform="translate(274.01 126.62) rotate(16.76)"><tspan x="0" y="0">a</tspan></text>
  <text class="cls-4" transform="translate(306.19 136.15) rotate(26.45)"><tspan x="0" y="0">d</tspan></text>
  <text class="cls-4" transform="translate(336.64 151.91) rotate(33.49)"><tspan x="0" y="0">i</tspan></text>
  <text class="cls-4" transform="translate(348.74 159.59) rotate(39.03)"><tspan x="0" y="0">s</tspan></text>
  <text class="cls-4" transform="translate(366.92 173.93) rotate(46.76)"><tspan x="0" y="0">e</tspan></text>
  <text class="cls-4" transform="translate(387.23 195.85) rotate(54.05)"><tspan x="0" y="0">t</tspan></text>
  <text class="cls-4" transform="translate(76.04 468.8) rotate(34.85)"><tspan x="0" y="0">H</tspan></text>
  <text class="cls-4" transform="translate(119.68 497.64) rotate(23.13)"><tspan x="0" y="0">u</tspan></text>
  <text class="cls-4" transform="translate(154.22 511.99) rotate(13.38)"><tspan x="0" y="0">n</tspan></text>
  <text class="cls-4" transform="translate(191.38 520.42) rotate(3.48)"><tspan x="0" y="0">d</tspan></text>
  <text class="cls-4" transform="translate(231.25 522.24) rotate(-6.33)"><tspan x="0" y="0">e</tspan></text>
  <text class="cls-4" transform="translate(266.85 518.09) rotate(-16.18)"><tspan x="0" y="0">p</tspan></text>
  <text class="cls-4" transform="translate(304.1 506.34) rotate(-23.69)"><tspan x="0" y="0">l</tspan></text>
  <text class="cls-4" transform="translate(321.16 499.16) rotate(-30.52)"><tspan x="0" y="0">e</tspan></text>
  <text class="cls-4" transform="translate(350.42 481.16) rotate(-37.34)"><tspan x="0" y="0">j</tspan></text>
  <text class="cls-4" transform="translate(365.52 469.98) rotate(-44.15)"><tspan x="0" y="0">e</tspan></text>
  <path class="cls-3" d="m85.86,438.23c-21.45-23.64-37.13-52.36-45.28-83.23-8.78-33.27-8.82-68.77-.11-102.05,4.89-18.67,12.51-36.6,22.55-53.08"/>
  <path class="cls-3" d="m414.1,215.94c35.72,68.95,21.72,156.95-26.72,216.45"/>
</svg>